<svg viewBox="0 0 180 137" fill="none" xmlns="http://www.w3.org/2000/svg">
<g filter="url(#filter0_d_1_80)">
<path fill-rule="evenodd" clip-rule="evenodd" d="M27 2C28.3807 2 29.5 3.11929 29.5 4.5L29.5 94.5C29.5 95.8807 28.3807 97 27 97C25.6193 97 24.5 95.8807 24.5 94.5L24.5 4.5C24.5 3.11929 25.6193 2 27 2ZM75.0178 29.3928C71.7908 32.6198 69.5 37.5823 69.5 44.5V74.5C69.5 75.8807 68.3807 77 67 77C65.6193 77 64.5 75.8807 64.5 74.5V44.5C64.5 36.4177 67.2092 30.1303 71.4822 25.8573C75.7317 21.6078 81.3816 19.5 87 19.5C92.6184 19.5 98.2683 21.6077 102.518 25.8572C106.791 30.1302 109.5 36.4177 109.5 44.5V64.5C109.5 65.8807 108.381 67 107 67C105.619 67 104.5 65.8807 104.5 64.5V44.5C104.5 37.5823 102.209 32.6197 98.9822 29.3927C95.7317 26.1422 91.3816 24.5 87 24.5C82.6184 24.5 78.2683 26.1423 75.0178 29.3928ZM131.893 56.4822C135.12 59.7092 140.082 62 147 62C155.082 62 161.37 64.7092 165.643 68.9822C169.892 73.2317 172 78.8816 172 84.5C172 90.1184 169.892 95.7683 165.643 100.018C161.37 104.291 155.082 107 147 107H87C85.6193 107 84.5 105.881 84.5 104.5C84.5 103.119 85.6193 102 87 102H147C153.918 102 158.88 99.7092 162.107 96.4822C165.358 93.2317 167 88.8816 167 84.5C167 80.1184 165.358 75.7683 162.107 72.5178C158.88 69.2908 153.918 67 147 67C138.918 67 132.63 64.2908 128.357 60.0178C124.108 55.7683 122 50.1184 122 44.5C122 38.8816 124.108 33.2317 128.357 28.9822C132.63 24.7092 138.918 22 147 22H167C168.381 22 169.5 23.1193 169.5 24.5C169.5 25.8807 168.381 27 167 27H147C140.082 27 135.12 29.2908 131.893 32.5178C128.642 35.7683 127 40.1184 127 44.5C127 48.8816 128.642 53.2317 131.893 56.4822ZM7 82C8.38071 82 9.5 83.1193 9.5 84.5C9.5 91.4177 11.7908 96.3802 15.0178 99.6072C18.2683 102.858 22.6184 104.5 27 104.5C31.3816 104.5 35.7317 102.858 38.9822 99.6072C42.2092 96.3802 44.5 91.4177 44.5 84.5V83C44.5 82.4477 44.9477 82 45.5 82H147C148.381 82 149.5 83.1193 149.5 84.5C149.5 85.8807 148.381 87 147 87H50.3407C49.8166 87 49.383 87.4059 49.33 87.9274C48.6748 94.3768 46.1664 99.4941 42.5178 103.143C38.2683 107.392 32.6184 109.5 27 109.5C21.3816 109.5 15.7317 107.392 11.4822 103.143C7.20923 98.8697 4.5 92.5823 4.5 84.5C4.5 83.1193 5.61929 82 7 82ZM67 92C68.3807 92 69.5 93.1193 69.5 94.5V124.5C69.5 125.881 68.3807 127 67 127C65.6193 127 64.5 125.881 64.5 124.5V94.5C64.5 93.1193 65.6193 92 67 92Z" fill="url(#paint0_linear_1_80)"/>
</g>
<defs>
<filter id="filter0_d_1_80" x="0.5" y="0" width="179.5" height="137" filterUnits="userSpaceOnUse" color-interpolation-filters="sRGB">
<feFlood flood-opacity="0" result="BackgroundImageFix"/>
<feColorMatrix in="SourceAlpha" type="matrix" values="0 0 0 0 0 0 0 0 0 0 0 0 0 0 0 0 0 0 127 0" result="hardAlpha"/>
<feOffset dx="2" dy="4"/>
<feGaussianBlur stdDeviation="3"/>
<feComposite in2="hardAlpha" operator="out"/>
<feColorMatrix type="matrix" values="0 0 0 0 0 0 0 0 0 0 0 0 0 0 0 0 0 0 0.25 0"/>
<feBlend mode="normal" in2="BackgroundImageFix" result="effect1_dropShadow_1_80"/>
<feBlend mode="normal" in="SourceGraphic" in2="effect1_dropShadow_1_80" result="shape"/>
</filter>
<linearGradient id="paint0_linear_1_80" x1="198.148" y1="115.305" x2="13.2724" y2="-4.43719" gradientUnits="userSpaceOnUse">
<stop stop-color="#0029FF"/>
<stop offset="1" stop-color="#00FFFF"/>
</linearGradient>
</defs>
</svg>
